<svg viewBox="0 0 48 48" fill="none" xmlns="http://www.w3.org/2000/svg">
  <path d="M24 4L40 10V22C40 32.5 33 40.5 24 44C15 40.5 8 32.5 8 22V10L24 4Z" stroke="#000000" stroke-width="2.5" stroke-linecap="round" stroke-linejoin="round" fill="none"/>
  <g stroke="#000000" stroke-width="2" stroke-linecap="round" stroke-linejoin="round">
    <rect x="18" y="16" width="12" height="12" rx="1" fill="#000000" fill-opacity="0.15"/>
    <line x1="22" y1="16" x2="22" y2="12"/>
    <line x1="26" y1="16" x2="26" y2="12"/>
    <line x1="22" y1="28" x2="22" y2="32"/>
    <line x1="26" y1="28" x2="26" y2="32"/>
    <line x1="18" y1="20" x2="14" y2="20"/>
    <line x1="18" y1="24" x2="14" y2="24"/>
    <line x1="30" y1="20" x2="34" y2="20"/>
    <line x1="30" y1="24" x2="34" y2="24"/>
    <circle cx="24" cy="22" r="3" fill="#000000"/>
  </g>
</svg>
